<mxfile host="Electron" agent="Mozilla/5.0 (X11; Linux x86_64) AppleWebKit/537.36 (KHTML, like Gecko) draw.io/25.0.2 Chrome/128.0.6613.186 Electron/32.2.5 Safari/537.36" version="25.0.2">
  <diagram name="Page-1" id="CtQwggeeypGbF7Thn7tO">
    <mxGraphModel dx="819" dy="479" grid="1" gridSize="10" guides="1" tooltips="1" connect="1" arrows="1" fold="1" page="1" pageScale="1" pageWidth="850" pageHeight="1100" math="0" shadow="0">
      <root>
        <mxCell id="0" />
        <mxCell id="1" parent="0" />
        <mxCell id="cXbSh2EqYFHmDzal61Vs-2" value="NewHeight" style="text;html=1;align=center;verticalAlign=middle;resizable=0;points=[];autosize=1;strokeColor=none;fillColor=none;labelBackgroundColor=#eeeeee;" parent="1" vertex="1">
          <mxGeometry x="360" y="190" width="80" height="30" as="geometry" />
        </mxCell>
        <mxCell id="cXbSh2EqYFHmDzal61Vs-3" value="Round&lt;sub&gt;i&lt;/sub&gt;" style="text;html=1;align=center;verticalAlign=middle;resizable=0;points=[];autosize=1;strokeColor=none;fillColor=none;labelBackgroundColor=#eeeeee;" parent="1" vertex="1">
          <mxGeometry x="370" y="250" width="60" height="30" as="geometry" />
        </mxCell>
        <mxCell id="cXbSh2EqYFHmDzal61Vs-6" value="&lt;font color=&quot;#7ea6e0&quot;&gt;Propose&amp;nbsp;&lt;sub style=&quot;&quot;&gt;i&lt;/sub&gt;&lt;/font&gt;" style="text;html=1;align=center;verticalAlign=middle;resizable=0;points=[];autosize=1;strokeColor=none;fillColor=none;labelBackgroundColor=#eeeeee;" parent="1" vertex="1">
          <mxGeometry x="365" y="330" width="70" height="30" as="geometry" />
        </mxCell>
        <mxCell id="cXbSh2EqYFHmDzal61Vs-7" value="Prevote&lt;sub&gt;i&lt;/sub&gt;" style="text;html=1;align=center;verticalAlign=middle;resizable=0;points=[];autosize=1;strokeColor=none;fillColor=none;labelBackgroundColor=#eeeeee;" parent="1" vertex="1">
          <mxGeometry x="242.5" y="450" width="70" height="30" as="geometry" />
        </mxCell>
        <mxCell id="cXbSh2EqYFHmDzal61Vs-8" value="NilPrevote&lt;sub&gt;i&lt;/sub&gt;" style="text;html=1;align=center;verticalAlign=middle;resizable=0;points=[];autosize=1;strokeColor=none;fillColor=none;labelBackgroundColor=#eeeeee;" parent="1" vertex="1">
          <mxGeometry x="477.5" y="450" width="80" height="30" as="geometry" />
        </mxCell>
        <mxCell id="cXbSh2EqYFHmDzal61Vs-9" value="Precommit &lt;sub&gt;i&lt;/sub&gt;" style="text;html=1;align=center;verticalAlign=middle;resizable=0;points=[];autosize=1;strokeColor=none;fillColor=none;labelBackgroundColor=#eeeeee;" parent="1" vertex="1">
          <mxGeometry x="232.5" y="540" width="90" height="30" as="geometry" />
        </mxCell>
        <mxCell id="cXbSh2EqYFHmDzal61Vs-10" value="Unsuccess&amp;nbsp;&lt;sub&gt;i&lt;/sub&gt;" style="text;html=1;align=center;verticalAlign=middle;resizable=0;points=[];autosize=1;strokeColor=none;fillColor=none;labelBackgroundColor=#eeeeee;" parent="1" vertex="1">
          <mxGeometry x="430" y="540" width="90" height="30" as="geometry" />
        </mxCell>
        <mxCell id="cXbSh2EqYFHmDzal61Vs-11" value="Commit &lt;sub&gt;i&lt;/sub&gt;" style="text;html=1;align=center;verticalAlign=middle;resizable=0;points=[];autosize=1;strokeColor=none;fillColor=none;labelBackgroundColor=#eeeeee;" parent="1" vertex="1">
          <mxGeometry x="355" y="590" width="70" height="30" as="geometry" />
        </mxCell>
        <mxCell id="cXbSh2EqYFHmDzal61Vs-12" value="" style="endArrow=classic;html=1;rounded=0;labelBackgroundColor=#eeeeee;" parent="1" source="cXbSh2EqYFHmDzal61Vs-2" target="cXbSh2EqYFHmDzal61Vs-3" edge="1">
          <mxGeometry width="50" height="50" relative="1" as="geometry">
            <mxPoint x="370" y="420" as="sourcePoint" />
            <mxPoint x="420" y="370" as="targetPoint" />
          </mxGeometry>
        </mxCell>
        <mxCell id="cXbSh2EqYFHmDzal61Vs-13" value="(nh, n)" style="edgeLabel;html=1;align=center;verticalAlign=middle;resizable=0;points=[];labelBackgroundColor=#eeeeee;" parent="cXbSh2EqYFHmDzal61Vs-12" vertex="1" connectable="0">
          <mxGeometry x="-0.0686" y="-1" relative="1" as="geometry">
            <mxPoint as="offset" />
          </mxGeometry>
        </mxCell>
        <mxCell id="cXbSh2EqYFHmDzal61Vs-16" value="" style="endArrow=classic;html=1;rounded=0;exitX=0.493;exitY=0.9;exitDx=0;exitDy=0;exitPerimeter=0;fillColor=#dae8fc;strokeColor=#6c8ebf;labelBackgroundColor=#eeeeee;" parent="1" source="cXbSh2EqYFHmDzal61Vs-3" target="cXbSh2EqYFHmDzal61Vs-6" edge="1">
          <mxGeometry width="50" height="50" relative="1" as="geometry">
            <mxPoint x="380" y="283" as="sourcePoint" />
            <mxPoint x="400" y="334" as="targetPoint" />
          </mxGeometry>
        </mxCell>
        <mxCell id="cXbSh2EqYFHmDzal61Vs-17" value="&lt;font color=&quot;#7ea6e0&quot;&gt;(r, p&amp;nbsp;n)&lt;/font&gt;" style="edgeLabel;html=1;align=center;verticalAlign=middle;resizable=0;points=[];labelBackgroundColor=#eeeeee;" parent="cXbSh2EqYFHmDzal61Vs-16" vertex="1" connectable="0">
          <mxGeometry x="-0.006" y="-1" relative="1" as="geometry">
            <mxPoint as="offset" />
          </mxGeometry>
        </mxCell>
        <mxCell id="cXbSh2EqYFHmDzal61Vs-27" value="" style="endArrow=classic;html=1;rounded=0;exitX=0.475;exitY=0.993;exitDx=0;exitDy=0;exitPerimeter=0;fillColor=#dae8fc;strokeColor=#6c8ebf;entryX=0.513;entryY=0.007;entryDx=0;entryDy=0;entryPerimeter=0;labelBackgroundColor=#eeeeee;" parent="1" source="cXbSh2EqYFHmDzal61Vs-6" target="cXbSh2EqYFHmDzal61Vs-7" edge="1">
          <mxGeometry width="50" height="50" relative="1" as="geometry">
            <mxPoint x="169" y="369" as="sourcePoint" />
            <mxPoint x="253" y="460" as="targetPoint" />
          </mxGeometry>
        </mxCell>
        <mxCell id="cXbSh2EqYFHmDzal61Vs-28" value="&lt;font color=&quot;#7ea6e0&quot;&gt;(p, w1&lt;sub style=&quot;&quot;&gt;ih&lt;/sub&gt;&amp;nbsp;γ&amp;nbsp;&lt;sub style=&quot;&quot;&gt;ih&lt;/sub&gt;)&lt;/font&gt;" style="edgeLabel;html=1;align=center;verticalAlign=middle;resizable=0;points=[];labelBackgroundColor=#eeeeee;" parent="cXbSh2EqYFHmDzal61Vs-27" vertex="1" connectable="0">
          <mxGeometry x="-0.006" y="-1" relative="1" as="geometry">
            <mxPoint x="22" y="-14" as="offset" />
          </mxGeometry>
        </mxCell>
        <mxCell id="cXbSh2EqYFHmDzal61Vs-29" value="" style="endArrow=classic;html=1;rounded=0;entryX=0.496;entryY=-0.014;entryDx=0;entryDy=0;entryPerimeter=0;exitX=0.504;exitY=0.993;exitDx=0;exitDy=0;exitPerimeter=0;fillColor=#dae8fc;strokeColor=#6c8ebf;labelBackgroundColor=#eeeeee;" parent="1" target="cXbSh2EqYFHmDzal61Vs-8" edge="1">
          <mxGeometry width="50" height="50" relative="1" as="geometry">
            <mxPoint x="400" y="360" as="sourcePoint" />
            <mxPoint x="720" y="451" as="targetPoint" />
          </mxGeometry>
        </mxCell>
        <mxCell id="cXbSh2EqYFHmDzal61Vs-30" value="&lt;font color=&quot;#7ea6e0&quot;&gt;(p, (1 - w1&lt;sub style=&quot;&quot;&gt;ih&lt;/sub&gt;) γ&amp;nbsp;&lt;sub style=&quot;&quot;&gt;ih&lt;/sub&gt;)&lt;/font&gt;" style="edgeLabel;html=1;align=center;verticalAlign=middle;resizable=0;points=[];labelBackgroundColor=#eeeeee;" parent="cXbSh2EqYFHmDzal61Vs-29" vertex="1" connectable="0">
          <mxGeometry x="-0.006" y="-1" relative="1" as="geometry">
            <mxPoint x="-7" y="-15" as="offset" />
          </mxGeometry>
        </mxCell>
        <mxCell id="cXbSh2EqYFHmDzal61Vs-36" value="" style="endArrow=classic;html=1;rounded=0;exitX=0.544;exitY=0.995;exitDx=0;exitDy=0;exitPerimeter=0;entryX=0.498;entryY=0.043;entryDx=0;entryDy=0;entryPerimeter=0;labelBackgroundColor=#eeeeee;" parent="1" source="cXbSh2EqYFHmDzal61Vs-8" target="cXbSh2EqYFHmDzal61Vs-10" edge="1">
          <mxGeometry width="50" height="50" relative="1" as="geometry">
            <mxPoint x="494" y="500" as="sourcePoint" />
            <mxPoint x="410" y="588" as="targetPoint" />
          </mxGeometry>
        </mxCell>
        <mxCell id="cXbSh2EqYFHmDzal61Vs-37" value="(pv,&amp;nbsp;β&lt;sub style=&quot;&quot;&gt;i&lt;/sub&gt;)" style="edgeLabel;html=1;align=center;verticalAlign=middle;resizable=0;points=[];labelBackgroundColor=#eeeeee;" parent="cXbSh2EqYFHmDzal61Vs-36" vertex="1" connectable="0">
          <mxGeometry x="-0.006" y="-1" relative="1" as="geometry">
            <mxPoint x="1" y="6" as="offset" />
          </mxGeometry>
        </mxCell>
        <mxCell id="cXbSh2EqYFHmDzal61Vs-39" value="" style="endArrow=classic;html=1;rounded=0;entryX=0.463;entryY=-0.022;entryDx=0;entryDy=0;entryPerimeter=0;exitX=0.531;exitY=0.933;exitDx=0;exitDy=0;exitPerimeter=0;labelBackgroundColor=#eeeeee;" parent="1" source="cXbSh2EqYFHmDzal61Vs-7" target="cXbSh2EqYFHmDzal61Vs-10" edge="1">
          <mxGeometry width="50" height="50" relative="1" as="geometry">
            <mxPoint x="520" y="480" as="sourcePoint" />
            <mxPoint x="490" y="581" as="targetPoint" />
          </mxGeometry>
        </mxCell>
        <mxCell id="cXbSh2EqYFHmDzal61Vs-40" value="(pv, (1-w2&lt;sub style=&quot;&quot;&gt;i&lt;/sub&gt;) β&lt;sub&gt;i&lt;/sub&gt;)&lt;span style=&quot;color: rgba(0, 0, 0, 0); font-family: monospace; font-size: 0px; text-align: start;&quot;&gt;%3CmxGraphModel%3E%3Croot%3E%3CmxCell%20id%3D%220%22%2F%3E%3CmxCell%20id%3D%221%22%20parent%3D%220%22%2F%3E%3CmxCell%20id%3D%222%22%20value%3D%22%22%20style%3D%22endArrow%3Dclassic%3Bhtml%3D1%3Brounded%3D0%3BexitX%3D0.544%3BexitY%3D0.995%3BexitDx%3D0%3BexitDy%3D0%3BexitPerimeter%3D0%3BentryX%3D0.498%3BentryY%3D0.043%3BentryDx%3D0%3BentryDy%3D0%3BentryPerimeter%3D0%3B%22%20edge%3D%221%22%20parent%3D%221%22%3E%3CmxGeometry%20width%3D%2250%22%20height%3D%2250%22%20relative%3D%221%22%20as%3D%22geometry%22%3E%3CmxPoint%20x%3D%22521%22%20y%3D%22480%22%20as%3D%22sourcePoint%22%2F%3E%3CmxPoint%20x%3D%22480%22%20y%3D%22571%22%20as%3D%22targetPoint%22%2F%3E%3C%2FmxGeometry%3E%3C%2FmxCell%3E%3CmxCell%20id%3D%223%22%20value%3D%22(pv%2C%26amp%3Bnbsp%3B%CE%B2%26lt%3Bsub%20style%3D%26quot%3B%26quot%3B%26gt%3Bi%26lt%3B%2Fsub%26gt%3B)%22%20style%3D%22edgeLabel%3Bhtml%3D1%3Balign%3Dcenter%3BverticalAlign%3Dmiddle%3Bresizable%3D0%3Bpoints%3D%5B%5D%3B%22%20vertex%3D%221%22%20connectable%3D%220%22%20parent%3D%222%22%3E%3CmxGeometry%20x%3D%22-0.006%22%20y%3D%22-1%22%20relative%3D%221%22%20as%3D%22geometry%22%3E%3CmxPoint%20x%3D%221%22%20y%3D%226%22%20as%3D%22offset%22%2F%3E%3C%2FmxGeometry%3E%3C%2FmxCell%3E%3C%2Froot%3E%3C%2FmxGraphModel%3E&lt;/span&gt;" style="edgeLabel;html=1;align=center;verticalAlign=middle;resizable=0;points=[];labelBackgroundColor=#eeeeee;" parent="cXbSh2EqYFHmDzal61Vs-39" vertex="1" connectable="0">
          <mxGeometry x="-0.006" y="-1" relative="1" as="geometry">
            <mxPoint x="1" y="6" as="offset" />
          </mxGeometry>
        </mxCell>
        <mxCell id="cXbSh2EqYFHmDzal61Vs-41" value="" style="endArrow=classic;html=1;rounded=0;entryX=0.522;entryY=-0.078;entryDx=0;entryDy=0;entryPerimeter=0;exitX=0.531;exitY=1.033;exitDx=0;exitDy=0;exitPerimeter=0;labelBackgroundColor=#eeeeee;" parent="1" source="cXbSh2EqYFHmDzal61Vs-7" target="cXbSh2EqYFHmDzal61Vs-9" edge="1">
          <mxGeometry width="50" height="50" relative="1" as="geometry">
            <mxPoint x="290" y="488" as="sourcePoint" />
            <mxPoint x="487" y="579" as="targetPoint" />
          </mxGeometry>
        </mxCell>
        <mxCell id="cXbSh2EqYFHmDzal61Vs-42" value="(pv, w2&lt;sub style=&quot;&quot;&gt;i&lt;/sub&gt;&amp;nbsp;β&lt;sub&gt;i&lt;/sub&gt;)&lt;span style=&quot;color: rgba(0, 0, 0, 0); font-family: monospace; font-size: 0px; text-align: start;&quot;&gt;%3CmxGraphModel%3E%3Croot%3E%3CmxCell%20id%3D%220%22%2F%3E%3CmxCell%20id%3D%221%22%20parent%3D%220%22%2F%3E%3CmxCell%20id%3D%222%22%20value%3D%22%22%20style%3D%22endArrow%3Dclassic%3Bhtml%3D1%3Brounded%3D0%3BexitX%3D0.544%3BexitY%3D0.995%3BexitDx%3D0%3BexitDy%3D0%3BexitPerimeter%3D0%3BentryX%3D0.498%3BentryY%3D0.043%3BentryDx%3D0%3BentryDy%3D0%3BentryPerimeter%3D0%3B%22%20edge%3D%221%22%20parent%3D%221%22%3E%3CmxGeometry%20width%3D%2250%22%20height%3D%2250%22%20relative%3D%221%22%20as%3D%22geometry%22%3E%3CmxPoint%20x%3D%22521%22%20y%3D%22480%22%20as%3D%22sourcePoint%22%2F%3E%3CmxPoint%20x%3D%22480%22%20y%3D%22571%22%20as%3D%22targetPoint%22%2F%3E%3C%2FmxGeometry%3E%3C%2FmxCell%3E%3CmxCell%20id%3D%223%22%20value%3D%22(pv%2C%26amp%3Bnbsp%3B%CE%B2%26lt%3Bsub%20style%3D%26quot%3B%26quot%3B%26gt%3Bi%26lt%3B%2Fsub%26gt%3B)%22%20style%3D%22edgeLabel%3Bhtml%3D1%3Balign%3Dcenter%3BverticalAlign%3Dmiddle%3Bresizable%3D0%3Bpoints%3D%5B%5D%3B%22%20vertex%3D%221%22%20connectable%3D%220%22%20parent%3D%222%22%3E%3CmxGeometry%20x%3D%22-0.006%22%20y%3D%22-1%22%20relative%3D%221%22%20as%3D%22geometry%22%3E%3CmxPoint%20x%3D%221%22%20y%3D%226%22%20as%3D%22offset%22%2F%3E%3C%2FmxGeometry%3E%3C%2FmxCell%3E%3C%2Froot%3E%3C%2FmxGraphModel%3E&lt;/span&gt;" style="edgeLabel;html=1;align=center;verticalAlign=middle;resizable=0;points=[];labelBackgroundColor=#eeeeee;" parent="cXbSh2EqYFHmDzal61Vs-41" vertex="1" connectable="0">
          <mxGeometry x="-0.006" y="-1" relative="1" as="geometry">
            <mxPoint x="1" y="6" as="offset" />
          </mxGeometry>
        </mxCell>
        <mxCell id="cXbSh2EqYFHmDzal61Vs-43" value="" style="endArrow=classic;html=1;rounded=0;exitX=0.525;exitY=0.983;exitDx=0;exitDy=0;exitPerimeter=0;entryX=-0.005;entryY=0.478;entryDx=0;entryDy=0;entryPerimeter=0;labelBackgroundColor=#eeeeee;" parent="1" source="cXbSh2EqYFHmDzal61Vs-9" target="cXbSh2EqYFHmDzal61Vs-11" edge="1">
          <mxGeometry width="50" height="50" relative="1" as="geometry">
            <mxPoint x="278" y="583" as="sourcePoint" />
            <mxPoint x="277" y="640" as="targetPoint" />
          </mxGeometry>
        </mxCell>
        <mxCell id="cXbSh2EqYFHmDzal61Vs-44" value="(pc, w3&amp;nbsp;δ&lt;sub&gt;i&lt;/sub&gt;)&lt;span style=&quot;color: rgba(0, 0, 0, 0); font-family: monospace; font-size: 0px; text-align: start;&quot;&gt;%3CmxGraphModel%3E%3Croot%3E%3CmxCell%20id%3D%220%22%2F%3E%3CmxCell%20id%3D%221%22%20parent%3D%220%22%2F%3E%3CmxCell%20id%3D%222%22%20value%3D%22%22%20style%3D%22endArrow%3Dclassic%3Bhtml%3D1%3Brounded%3D0%3BexitX%3D0.544%3BexitY%3D0.995%3BexitDx%3D0%3BexitDy%3D0%3BexitPerimeter%3D0%3BentryX%3D0.498%3BentryY%3D0.043%3BentryDx%3D0%3BentryDy%3D0%3BentryPerimeter%3D0%3B%22%20edge%3D%221%22%20parent%3D%221%22%3E%3CmxGeometry%20width%3D%2250%22%20height%3D%2250%22%20relative%3D%221%22%20as%3D%22geometry%22%3E%3CmxPoint%20x%3D%22521%22%20y%3D%22480%22%20as%3D%22sourcePoint%22%2F%3E%3CmxPoint%20x%3D%22480%22%20y%3D%22571%22%20as%3D%22targetPoint%22%2F%3E%3C%2FmxGeometry%3E%3C%2FmxCell%3E%3CmxCell%20id%3D%223%22%20value%3D%22(pv%2C%26amp%3Bnbsp%3B%CE%B2%26lt%3Bsub%20style%3D%26quot%3B%26quot%3B%26gt%3Bi%26lt%3B%2Fsub%26gt%3B)%22%20style%3D%22edgeLabel%3Bhtml%3D1%3Balign%3Dcenter%3BverticalAlign%3Dmiddle%3Bresizable%3D0%3Bpoints%3D%5B%5D%3B%22%20vertex%3D%221%22%20connectable%3D%220%22%20parent%3D%222%22%3E%3CmxGeometry%20x%3D%22-0.006%22%20y%3D%22-1%22%20relative%3D%221%22%20as%3D%22geometry%22%3E%3CmxPoint%20x%3D%221%22%20y%3D%226%22%20as%3D%22offset%22%2F%3E%3C%2FmxGeometry%3E%3C%2FmxCell%3E%3C%2Froot%3E%3C%2FmxGraphModel%3E&lt;/span&gt;" style="edgeLabel;html=1;align=center;verticalAlign=middle;resizable=0;points=[];labelBackgroundColor=#eeeeee;" parent="cXbSh2EqYFHmDzal61Vs-43" vertex="1" connectable="0">
          <mxGeometry x="-0.006" y="-1" relative="1" as="geometry">
            <mxPoint as="offset" />
          </mxGeometry>
        </mxCell>
        <mxCell id="cXbSh2EqYFHmDzal61Vs-45" value="" style="curved=1;endArrow=classic;html=1;rounded=0;exitX=-0.009;exitY=0.526;exitDx=0;exitDy=0;exitPerimeter=0;entryX=0.005;entryY=0.147;entryDx=0;entryDy=0;entryPerimeter=0;" parent="1" source="cXbSh2EqYFHmDzal61Vs-9" target="cXbSh2EqYFHmDzal61Vs-3" edge="1">
          <mxGeometry width="50" height="50" relative="1" as="geometry">
            <mxPoint x="150" y="420" as="sourcePoint" />
            <mxPoint x="200" y="370" as="targetPoint" />
            <Array as="points">
              <mxPoint x="180" y="530" />
              <mxPoint x="270" y="280" />
            </Array>
          </mxGeometry>
        </mxCell>
        <mxCell id="cXbSh2EqYFHmDzal61Vs-47" value="(pc, (1 - w3) δ&lt;sub&gt;i&lt;/sub&gt;)&lt;span style=&quot;color: rgba(0, 0, 0, 0); font-family: monospace; font-size: 0px; text-align: start;&quot;&gt;%3CmxGraphModel%3E%3Croot%3E%3CmxCell%20id%3D%220%22%2F%3E%3CmxCell%20id%3D%221%22%20parent%3D%220%22%2F%3E%3CmxCell%20id%3D%222%22%20value%3D%22%22%20style%3D%22endArrow%3Dclassic%3Bhtml%3D1%3Brounded%3D0%3BexitX%3D0.544%3BexitY%3D0.995%3BexitDx%3D0%3BexitDy%3D0%3BexitPerimeter%3D0%3BentryX%3D0.498%3BentryY%3D0.043%3BentryDx%3D0%3BentryDy%3D0%3BentryPerimeter%3D0%3B%22%20edge%3D%221%22%20parent%3D%221%22%3E%3CmxGeometry%20width%3D%2250%22%20height%3D%2250%22%20relative%3D%221%22%20as%3D%22geometry%22%3E%3CmxPoint%20x%3D%22521%22%20y%3D%22480%22%20as%3D%22sourcePoint%22%2F%3E%3CmxPoint%20x%3D%22480%22%20y%3D%22571%22%20as%3D%22targetPoint%22%2F%3E%3C%2FmxGeometry%3E%3C%2FmxCell%3E%3CmxCell%20id%3D%223%22%20value%3D%22(pv%2C%26amp%3Bnbsp%3B%CE%B2%26lt%3Bsub%20style%3D%26quot%3B%26quot%3B%26gt%3Bi%26lt%3B%2Fsub%26gt%3B)%22%20style%3D%22edgeLabel%3Bhtml%3D1%3Balign%3Dcenter%3BverticalAlign%3Dmiddle%3Bresizable%3D0%3Bpoints%3D%5B%5D%3B%22%20vertex%3D%221%22%20connectable%3D%220%22%20parent%3D%222%22%3E%3CmxGeometry%20x%3D%22-0.006%22%20y%3D%22-1%22%20relative%3D%221%22%20as%3D%22geometry%22%3E%3CmxPoint%20x%3D%221%22%20y%3D%226%22%20as%3D%22offset%22%2F%3E%3C%2FmxGeometry%3E%3C%2FmxCell%3E%3C%2Froot%3E%3C%2FmxGraphModel%3E&lt;/span&gt;" style="edgeLabel;html=1;align=center;verticalAlign=middle;resizable=0;points=[];labelBackgroundColor=#eeeeee;" parent="cXbSh2EqYFHmDzal61Vs-45" vertex="1" connectable="0">
          <mxGeometry x="-0.3346" y="-3" relative="1" as="geometry">
            <mxPoint x="21" y="-71" as="offset" />
          </mxGeometry>
        </mxCell>
        <mxCell id="cXbSh2EqYFHmDzal61Vs-49" value="" style="curved=1;endArrow=classic;html=1;rounded=0;exitX=1.015;exitY=0.526;exitDx=0;exitDy=0;exitPerimeter=0;entryX=0.971;entryY=0.17;entryDx=0;entryDy=0;entryPerimeter=0;labelBackgroundColor=#eeeeee;" parent="1" source="cXbSh2EqYFHmDzal61Vs-10" target="cXbSh2EqYFHmDzal61Vs-3" edge="1">
          <mxGeometry width="50" height="50" relative="1" as="geometry">
            <mxPoint x="242" y="566" as="sourcePoint" />
            <mxPoint x="380" y="264" as="targetPoint" />
            <Array as="points">
              <mxPoint x="640" y="410" />
              <mxPoint x="510" y="290" />
            </Array>
          </mxGeometry>
        </mxCell>
        <mxCell id="cXbSh2EqYFHmDzal61Vs-50" value="(pc, δ&lt;sub&gt;i&lt;/sub&gt;)&lt;span style=&quot;color: rgba(0, 0, 0, 0); font-family: monospace; font-size: 0px; text-align: start;&quot;&gt;%3CmxGraphModel%3E%3Croot%3E%3CmxCell%20id%3D%220%22%2F%3E%3CmxCell%20id%3D%221%22%20parent%3D%220%22%2F%3E%3CmxCell%20id%3D%222%22%20value%3D%22%22%20style%3D%22endArrow%3Dclassic%3Bhtml%3D1%3Brounded%3D0%3BexitX%3D0.544%3BexitY%3D0.995%3BexitDx%3D0%3BexitDy%3D0%3BexitPerimeter%3D0%3BentryX%3D0.498%3BentryY%3D0.043%3BentryDx%3D0%3BentryDy%3D0%3BentryPerimeter%3D0%3B%22%20edge%3D%221%22%20parent%3D%221%22%3E%3CmxGeometry%20width%3D%2250%22%20height%3D%2250%22%20relative%3D%221%22%20as%3D%22geometry%22%3E%3CmxPoint%20x%3D%22521%22%20y%3D%22480%22%20as%3D%22sourcePoint%22%2F%3E%3CmxPoint%20x%3D%22480%22%20y%3D%22571%22%20as%3D%22targetPoint%22%2F%3E%3C%2FmxGeometry%3E%3C%2FmxCell%3E%3CmxCell%20id%3D%223%22%20value%3D%22(pv%2C%26amp%3Bnbsp%3B%CE%B2%26lt%3Bsub%20style%3D%26quot%3B%26quot%3B%26gt%3Bi%26lt%3B%2Fsub%26gt%3B)%22%20style%3D%22edgeLabel%3Bhtml%3D1%3Balign%3Dcenter%3BverticalAlign%3Dmiddle%3Bresizable%3D0%3Bpoints%3D%5B%5D%3B%22%20vertex%3D%221%22%20connectable%3D%220%22%20parent%3D%222%22%3E%3CmxGeometry%20x%3D%22-0.006%22%20y%3D%22-1%22%20relative%3D%221%22%20as%3D%22geometry%22%3E%3CmxPoint%20x%3D%221%22%20y%3D%226%22%20as%3D%22offset%22%2F%3E%3C%2FmxGeometry%3E%3C%2FmxCell%3E%3C%2Froot%3E%3C%2FmxGraphModel%3E&lt;/span&gt;" style="edgeLabel;html=1;align=center;verticalAlign=middle;resizable=0;points=[];labelBackgroundColor=#eeeeee;" parent="cXbSh2EqYFHmDzal61Vs-49" vertex="1" connectable="0">
          <mxGeometry x="-0.3346" y="-3" relative="1" as="geometry">
            <mxPoint x="-29" y="-71" as="offset" />
          </mxGeometry>
        </mxCell>
        <mxCell id="cXbSh2EqYFHmDzal61Vs-52" value="" style="curved=1;endArrow=classic;html=1;rounded=0;exitX=0.993;exitY=0.593;exitDx=0;exitDy=0;exitPerimeter=0;labelBackgroundColor=#eeeeee;" parent="1" source="cXbSh2EqYFHmDzal61Vs-11" target="cXbSh2EqYFHmDzal61Vs-2" edge="1">
          <mxGeometry width="50" height="50" relative="1" as="geometry">
            <mxPoint x="531" y="566" as="sourcePoint" />
            <mxPoint x="438" y="265" as="targetPoint" />
            <Array as="points">
              <mxPoint x="660" y="530" />
              <mxPoint x="580" y="230" />
            </Array>
          </mxGeometry>
        </mxCell>
        <mxCell id="cXbSh2EqYFHmDzal61Vs-53" value="(c&lt;sub&gt;i&lt;/sub&gt;,&amp;nbsp;η)" style="edgeLabel;html=1;align=center;verticalAlign=middle;resizable=0;points=[];labelBackgroundColor=#eeeeee;" parent="cXbSh2EqYFHmDzal61Vs-52" vertex="1" connectable="0">
          <mxGeometry x="-0.3346" y="-3" relative="1" as="geometry">
            <mxPoint x="-56" y="-238" as="offset" />
          </mxGeometry>
        </mxCell>
      </root>
    </mxGraphModel>
  </diagram>
</mxfile>
